<svg width="88" height="101" viewBox="0 0 88 101" fill="none" xmlns="http://www.w3.org/2000/svg">
<circle cx="44" cy="44" r="20.5" fill="white" stroke="#464673" stroke-width="3"/>
<line x1="55.8662" y1="59.5003" x2="70.8662" y2="85.5003" stroke="#464673" stroke-width="2"/>
<line x1="44" y1="65" x2="44" y2="89" stroke="#464673" stroke-width="2"/>
<line x1="17.1338" y1="84.6798" x2="31.6595" y2="59.5003" stroke="#464673" stroke-width="2"/>
<circle cx="76" cy="85" r="5.5" fill="#464673" stroke="#464673"/>
<circle cx="44" cy="95" r="5.5" fill="#464673" stroke="#464673"/>
<circle cx="12" cy="85" r="5.5" fill="#464673" stroke="#464673"/>
<mask id="path-8-inside-1_39_79" fill="white">
<path d="M30.8369 74.7633C34.8864 76.4823 39.2349 77.3867 43.634 77.4251C48.0332 77.4635 52.3968 76.6351 56.4757 74.9871L43.9264 43.9264L30.8369 74.7633Z"/>
</mask>
<path d="M30.8369 74.7633C34.8864 76.4823 39.2349 77.3867 43.634 77.4251C48.0332 77.4635 52.3968 76.6351 56.4757 74.9871L43.9264 43.9264L30.8369 74.7633Z" fill="#464673" stroke="#464673" stroke-width="2" mask="url(#path-8-inside-1_39_79)"/>
<line x1="43.8944" y1="47.4472" x2="17.8944" y2="99.4472" stroke="#464673" stroke-width="2"/>
<line x1="69.1101" y1="99.4451" x2="43.1056" y2="47.4473" stroke="#464673" stroke-width="2"/>
<rect x="68.5" y="95.5" width="13" height="4" fill="#464673" stroke="#464673"/>
<path d="M18.5 95.5V99.5H6.5V95.5H18.5Z" fill="#464673" stroke="#464673"/>
<mask id="path-13-inside-2_39_79" fill="white">
<path d="M78 45.5C78 36.6152 74.4705 28.0944 68.1881 21.8119C61.9056 15.5295 53.3848 12 44.5 12C35.6153 12 27.0944 15.5295 20.8119 21.8119C14.5295 28.0944 11 36.6152 11 45.5L17.0818 45.5C17.0818 38.2282 19.9705 31.2543 25.1124 26.1124C30.2543 20.9705 37.2282 18.0818 44.5 18.0818C51.7718 18.0818 58.7457 20.9705 63.8876 26.1124C69.0295 31.2543 71.9182 38.2282 71.9182 45.5H78Z"/>
</mask>
<path d="M78 45.5C78 36.6152 74.4705 28.0944 68.1881 21.8119C61.9056 15.5295 53.3848 12 44.5 12C35.6153 12 27.0944 15.5295 20.8119 21.8119C14.5295 28.0944 11 36.6152 11 45.5L17.0818 45.5C17.0818 38.2282 19.9705 31.2543 25.1124 26.1124C30.2543 20.9705 37.2282 18.0818 44.5 18.0818C51.7718 18.0818 58.7457 20.9705 63.8876 26.1124C69.0295 31.2543 71.9182 38.2282 71.9182 45.5H78Z" fill="#464673" stroke="#464673" stroke-width="2" mask="url(#path-13-inside-2_39_79)"/>
</svg>
