<svg width="300" height="292" viewBox="0 0 300 292" fill="none" xmlns="http://www.w3.org/2000/svg">
<g clip-path="url(#clip0_39_103)">
<path d="M246.415 33.6523C276.595 59.306 296.573 94.0933 300 134C302.277 172.863 290.949 210.629 265 240C264.364 240.734 264.364 240.734 263.715 241.483C257.382 248.781 250.754 255.179 243 261C242.038 261.727 241.077 262.454 240.086 263.203C225.609 273.685 210.109 280.972 193 286C192.841 285.348 192.683 284.695 192.52 284.023C190.759 277.427 188.914 272.652 183.062 268.688C176.944 266.648 170.645 266.836 164.273 266.789C162.169 266.761 160.065 266.732 157.961 266.703C154.658 266.662 151.356 266.625 148.053 266.599C144.855 266.571 141.658 266.525 138.461 266.477C137.472 266.473 136.484 266.47 135.465 266.467C134.544 266.45 133.623 266.434 132.673 266.417C131.865 266.408 131.057 266.4 130.225 266.392C127.496 265.911 126.075 264.791 124 263C124.25 260.625 124.25 260.625 125 258C128.103 255.913 130.665 255.764 134.344 255.805C135.947 255.815 135.947 255.815 137.582 255.825C139.309 255.85 139.309 255.85 141.07 255.875C142.262 255.883 143.453 255.89 144.681 255.898C149.776 255.931 154.871 255.987 159.967 256.041C163.689 256.077 167.411 256.101 171.133 256.125C172.272 256.142 173.411 256.158 174.584 256.175C186.442 256.405 186.442 256.405 196.938 251.75C200.758 246.655 202.602 242.688 202.344 236.309C201.538 230.899 199.67 227.327 195.389 223.924C189.314 220.564 181.973 221.394 175.223 221.391C173.686 221.376 172.149 221.359 170.612 221.34C166.586 221.297 162.56 221.277 158.534 221.262C154.417 221.242 150.302 221.2 146.186 221.16C138.124 221.085 130.062 221.035 122 221C121.83 219.842 121.66 218.685 121.484 217.492C121.24 215.953 120.996 214.414 120.75 212.875C120.586 211.734 120.586 211.734 120.418 210.57C118.717 200.184 111.75 193.701 103.562 187.687C91.1272 178.119 83.0754 162.761 80.3984 147.43C78.1346 127.943 82.8581 109.784 94.5625 94.0391C107.308 78.1478 125.345 70.5012 145.25 68.2578C162.948 67.0411 179.862 72.0768 193.75 83.2031C207.041 94.833 217.491 109.73 219.271 127.737C220.576 149.453 215.428 166.893 201.141 183.6C197.897 187.242 194.472 190.067 190.465 192.805C188.753 194.006 188.753 194.006 187.938 196.625C187.998 198.922 188.409 200.792 189 203C194.135 203.642 197.864 203.587 202.125 200.437C203.439 199.317 204.732 198.171 206 197C206.562 196.517 207.124 196.033 207.703 195.535C222.723 181.744 232.07 161.279 233.16 141.023C233.781 117.092 225.216 96.6172 208.812 79.25C192.873 64.0197 172.512 56.1824 150.562 55.625C126.879 56.199 106.049 64.661 88.8477 81.0508C73.6653 97.0148 66.3254 118.444 66.7578 140.305C67.9196 158.031 73.7704 173.177 85 187C85.5943 187.812 86.1885 188.624 86.8008 189.461C90.0309 193.19 93.9034 195.9 97.8672 198.807C103.053 202.73 106.506 206.217 107.688 212.875C107.869 214.942 108.001 217.008 108.133 219.078C108.572 224.08 109.726 227.18 113 231C116.831 232.961 119.97 233.236 124.24 233.195C125.478 233.189 126.716 233.182 127.992 233.175C128.649 233.167 129.306 233.159 129.982 233.15C132.051 233.125 134.12 233.112 136.189 233.102C141.328 233.075 146.467 233.027 151.606 232.979C155.952 232.94 160.297 232.908 164.643 232.888C166.672 232.875 168.701 232.85 170.73 232.825C182.338 232.763 182.338 232.763 188 235C189 236 189 236 189.188 238.437C189 241 189 241 187 243C184.628 243.363 182.39 243.57 180 243.687C179.243 243.729 178.486 243.77 177.707 243.812C167.524 244.233 157.323 243.74 147.146 243.319C131.915 242.138 131.915 242.138 118 247C113.686 251.396 111.834 254.531 111.688 260.688C111.743 266.431 112.448 269.489 116 274C125.558 282.399 144.512 279.102 156.283 278.884C159.092 278.835 161.901 278.805 164.711 278.777C165.999 278.745 165.999 278.745 167.312 278.711C171.989 278.673 175.285 278.799 179 282C179.438 285.062 179.438 285.062 179 288C173.22 293.78 158.104 292.256 150.375 292.312C108.555 292.142 70.2437 275.773 40.5347 246.549C14.2109 219.982 -0.118473 183.214 -0.375 146C-0.107351 111.109 12.1362 78.3231 35 52C35.7309 51.1466 36.4618 50.2933 37.2148 49.4141C60.5318 22.7778 93.9791 5.68234 129 0.999991C130.011 0.862948 130.011 0.862948 131.042 0.723136C171.676 -4.34588 214.837 7.28066 246.415 33.6523ZM220 229C217.609 231.911 217.529 235.245 217.605 238.965C218.314 242.617 220.375 244.438 223 247C226.472 248.736 230.204 248.466 234 248C238.077 245.924 240.332 244.244 242 240C242.33 236.16 242.141 232.414 239.66 229.34C236.699 226.856 234.146 225.133 230.312 224.687C225.843 225.109 223.697 226.441 220 229Z" fill="#464673"/>
</g>
<defs>
<clipPath id="clip0_39_103">
<rect width="300" height="292" fill="white"/>
</clipPath>
</defs>
</svg>
